<svg id="Layer_1" data-name="Layer 1" xmlns="http://www.w3.org/2000/svg" xmlns:xlink="http://www.w3.org/1999/xlink" viewBox="0 0 400 541.23"><defs><style>.cls-1,.cls-2{fill:#2b4afc;}.cls-1,.cls-5{stroke:#fff;stroke-width:0.5px;}.cls-3{clip-path:url(#clip-path);}.cls-4{fill:#e5e5e5;}.cls-5{fill:none;}.cls-6{fill:#f3f3f3;}.cls-7{fill:#cf8a5b;}.cls-8{fill:#4a312c;}.cls-9{fill:#ba7d52;}.cls-10{fill:silver;}.cls-11{fill:#dad3d0;}.cls-12{fill:#dbd7d8;}.cls-13{fill:#cdcdcd;}.cls-14{fill:#c3c3c3;}.cls-15{fill:#d0d0d0;}.cls-16{fill:#ccc;}.cls-17{fill:#cbcbcb;}.cls-18{fill:#cecece;}.cls-19{fill:#c7c7c7;}.cls-20{fill:#3e291b;}.cls-21{fill:#533824;}.cls-22{fill:#ae754c;}.cls-23{fill:#fe4f6c;}.cls-24{fill:#fefefe;}.cls-25{fill:#c68557;}</style><clipPath id="clip-path" transform="translate(-441.05 -252.98)"><rect class="cls-1" x="441.84" y="373.41" width="398.42" height="419.9" rx="19.65"/></clipPath></defs><title>myavatar</title><rect class="cls-2" x="0.79" y="120.43" width="398.42" height="419.9" rx="19.65"/><g class="cls-3"><path class="cls-4" d="M529.12,641.34c.6-13.76,8.18-23,19.63-29.36s24.23-9.38,37.31-10.79c2.28-.24,4.55-.67,6.82-1,2.74,3.09,1.29,6.84,1.66,10.31.12,11.45-1.06,23,.74,34.35,3.58,22.65,21.59,39.23,44.5,39.8a46,46,0,0,0,46.8-38.26c2.16-11.88.77-23.89,1-35.84.36-3.49-1.1-7.27,1.65-10.36,16.68,2.06,33.36,4.38,47.68,14.07,9.43,6.39,15.81,15,16.08,27.1.3,11.87-5.54,21.18-12.73,29.8a83.74,83.74,0,0,1-24.44,20.16c-4.63,3.25-9.94,5.25-14.8,8.07-8.5,2.92-16.93,6-25.87,7.33-2.52,1.58-5.57.35-8.16,1.55a5.61,5.61,0,0,1-3.81.39c.91,0,2.64.56,4.31-.71,2.59-.35,5.29,0,7.75-1.2,6.45-.85,12.58-3,18.88-4.47,2.09-.47,4.15-1.31,6.38-.69a2.48,2.48,0,0,1,1.3,1.17c1.05,2.38.8,4.91.8,7.4q0,26,0,52c0,1.5,0,3,0,4.5.08,6.34,2,9.66,5.58,9.56s5.22-3.23,5.31-9.31c0-1.5,0-3,0-4.5q0-28.25,0-56.49a34,34,0,0,1,.4-7.47,5.09,5.09,0,0,1,1.18-2.19c6.07-3.4,12.56-6,18.71-9.25,14.74-7.85,28-17.31,35.55-32.9a4.73,4.73,0,0,1,1.64-1.83A147.82,147.82,0,0,1,804.33,680c11,12.2,20,25.61,26,41.09a205.54,205.54,0,0,1,9.65,33.2,5.77,5.77,0,0,0,0,4.89l1,2.1a21.55,21.55,0,0,0,0,9.88q0,11.54,0,23.06h-260c-1.6-1.77-1.59-4-1.6-6.14q-.06-40,0-80a13.91,13.91,0,0,1,.62-4.92,3.22,3.22,0,0,1,1.13-1.42c5.6-1.14,10.5,1.83,15.74,2.81,3.35.62,6.63,1.73,10,2.26A103.18,103.18,0,0,0,622.72,709c2.82,1.56,5.84.34,8,.67-2-.06-4.68.3-7.36-.19-5-1.21-10.17-1.22-15.18-2.34a171.56,171.56,0,0,1-27-7.7c-4.87-2.87-10.24-4.81-14.87-8.11a84.9,84.9,0,0,1-28.7-25.7C532.52,658.41,528.65,650.59,529.12,641.34Z" transform="translate(-441.05 -252.98)"/><path class="cls-4" d="M441.11,761.28l1-2.1a5.7,5.7,0,0,0,0-4.89c2.36-11.85,5.19-23.58,10-34.72,6.27-14.57,14.48-27.93,25.5-39.43,10.11-10.56,20.54-20.73,33.49-27.88,2.56,2.08,3.32,5.31,5,7.94,7.38,11.37,18,18.9,29.55,25.42,6.92,3.92,14.36,6.86,21.36,10.67a5.51,5.51,0,0,1,1.2,2.34,28.68,28.68,0,0,1,.43,6.47q0,40.5,0,81c0,2.79.46,5.73-1.59,8.14h-126q0-11.54,0-23.07A21.65,21.65,0,0,0,441.11,761.28Z" transform="translate(-441.05 -252.98)"/></g><rect class="cls-5" x="0.79" y="120.43" width="398.42" height="419.9" rx="19.65"/><path class="cls-6" d="M567,793l0-97c5.54-.83,10,1.26,14,5q0,46,0,92Z" transform="translate(-441.05 -252.98)"/><path class="cls-7" d="M592.9,594c-24.71-11.49-42.34-30-53.82-54.51A98.26,98.26,0,0,1,530,508.58a4.83,4.83,0,0,0-3.64-4.64C514.26,499.62,509,492,509,479q0-12,0-24c0-13.11,5-20.28,17.2-25.08,5.38.71,5.38.71,5.46-4.89.27-21.42,4.27-42,14-61.24,6.1-12,15.48-21.61,24.64-31.25,4.41-4.66,6.6-4.33,11.52-.27,10.75,8.87,23.61,12.94,36.92,15.42,19.27,3.6,38.64,4.62,57.87-.78a87,87,0,0,0,23.78-10.16c5-3.2,5.88-3,9.12,2,4.51,6.92,10.55,12.55,16.71,17.77,10.6,9,15,20.83,18.06,33.63,2.2,9.24,4,18.56,5.77,27.87A37.49,37.49,0,0,0,753.64,429c.89,1.21,2.37,1.09,3.59,1.55,9.59,3.62,15.56,11.81,15.72,22.1.15,9.48.13,19,0,28.46-.12,10.72-6.13,19.23-16.37,22.59-3.31,1.08-4.15,2.77-4.71,5.93C745,548.13,724.56,576.68,689.1,594c-3.44,4.74-9.06,5.43-14,7-25.7,8.29-51.14,7-76.23-2.8C596.53,597.32,594.28,596.3,592.9,594Z" transform="translate(-441.05 -252.98)"/><path class="cls-8" d="M753.64,429c-3.12-.39-3.13-3-3.65-5.18-3.43-14.5-5.32-29.34-9.89-43.58-2.37-7.39-5.75-13.87-11.51-19.43-7.83-7.57-17-14.12-21.85-24.37-.93-2-2.17-.84-3.24-.13-20.76,13.83-43.71,17-68.1,15-15.79-1.28-30.75-4.7-45-11.59-3.63-1.76-7.23-3.75-9.78-6.77-3.09-3.68-5.79-3.18-8.6-.24-13.39,14-26.44,28.21-31.88,47.51-4.37,15.52-8.08,31.16-7,47.5.12,1.82.22,4-1.65,4.93-2.71,1.41-3.5-1.83-5.34-2.61a113.48,113.48,0,0,1-9-55.48c1.59-18.36,4.38-36.63,15.77-52.15a43.2,43.2,0,0,1,11.66-10.77c2.2-1.42,4.3-3,4.21-5.74-.3-9.05,4.64-16,9.81-22.34,19.16-23.36,44-33,74.18-29.84,11.48,1.21,22.36,4.69,33.35,7.63a63,63,0,0,0,44.12-3.7c4.67-2.15,9.46-4.07,14.65-4.52,13.26-1.17,24.55,7.82,27,21.26,2.37,12.89.72,24.82-8.1,35-1.54,1.78-.48,2.56.58,3.65,20.57,21.24,24.28,47.41,22.11,75.35a112.74,112.74,0,0,1-7,30.91A25.17,25.17,0,0,1,753.64,429Z" transform="translate(-441.05 -252.98)"/><path class="cls-9" d="M592.9,594q48.11,22.22,96.2,0c0,1.65,0,3.29.07,4.94L688.85,610c-.94,2.19-2.92,3.09-4.93,3.9q-42.92,17.22-85.84,0c-2-.81-4-1.71-4.93-3.9-.11-3.69-.21-7.37-.32-11.06C592.85,597.31,592.88,595.67,592.9,594Z" transform="translate(-441.05 -252.98)"/><path class="cls-10" d="M771,651c-3.39,9.92-10,17.31-18.05,23.75A130.61,130.61,0,0,1,716,695.06c-3.61-1.45-2-3.77-1-6C730.57,679.93,743.4,668.29,750,651c1.32-3.49,2-7.23,3-10.85,0,2.08,1.66,2.73,3.18,3.3A97.15,97.15,0,0,1,771,651Z" transform="translate(-441.05 -252.98)"/><path class="cls-10" d="M566,695.06c-19.64-7.73-38.21-17-50.62-35.14a25.07,25.07,0,0,1-4.29-8.88,98.11,98.11,0,0,1,14.85-7.62c1.53-.58,3.14-1.21,3.17-3.3,2.15,9.39,5,18.35,11.31,26,7.53,9.26,16.08,17.16,26.59,22.88C568,691.29,569.57,693.61,566,695.06Z" transform="translate(-441.05 -252.98)"/><path class="cls-11" d="M442.15,755.83a11.25,11.25,0,0,1,0,9.87Q442.14,760.76,442.15,755.83Z" transform="translate(-441.05 -252.98)"/><path class="cls-12" d="M442.07,753.08a3.34,3.34,0,0,1,0,4.88Z" transform="translate(-441.05 -252.98)"/><path class="cls-12" d="M840,758a3.34,3.34,0,0,1,0-4.88Z" transform="translate(-441.05 -252.98)"/><path class="cls-7" d="M593.15,610q47.85,22.34,95.7,0c-.33,14.24,1.9,28.62-2.76,42.62-6.23,18.68-24.84,32.21-44.84,32.34s-39.06-13.44-45.33-32.35A55.33,55.33,0,0,1,593,634.51Q593.09,622.27,593.15,610Z" transform="translate(-441.05 -252.98)"/><path class="cls-6" d="M715,696.05q0,36.24,0,72.47c0,5.07-2.88,8.48-7,8.47s-7-3.43-7-8.51q0-33.74,0-67.47C704.94,697.31,709.43,695.21,715,696.05Z" transform="translate(-441.05 -252.98)"/><path class="cls-13" d="M566,695.06c1.84-1.75.75-4,1-6L581,697c1,1.15,1.79,2.38,1,4l-1,0c-4.58-1.85-9.11-3.86-14-5Z" transform="translate(-441.05 -252.98)"/><path class="cls-13" d="M715,696.05c-4.86,1.1-9.39,3.11-14,5l-1,0c-.78-1.61,0-2.84,1-4l14-7.94c.26,2-.83,4.26,1,6Z" transform="translate(-441.05 -252.98)"/><path class="cls-14" d="M582,701a6.61,6.61,0,0,1-1-4c9.09,2.37,17.63,6.55,27,8.06.24.88.08,1.37-1,1C598.44,705.41,590.27,703,582,701Z" transform="translate(-441.05 -252.98)"/><path class="cls-14" d="M701,697a6.61,6.61,0,0,1-1,4c-8.27,2-16.45,4.45-25,5-.34-.22-.45-.44-.34-.65s.23-.33.35-.33Z" transform="translate(-441.05 -252.98)"/><path class="cls-15" d="M607,706l1-1c4.91,1.47,10.21,1,15,3l0,0C617.57,708.11,612.19,707.83,607,706Z" transform="translate(-441.05 -252.98)"/><path class="cls-16" d="M649.46,708.18h9.36A15,15,0,0,1,649.46,708.18Z" transform="translate(-441.05 -252.98)"/><path class="cls-17" d="M675,705c0,.33,0,.66,0,1-2.52,1.53-5.31.87-8,1l0,0C669.4,705.26,672.47,706.2,675,705Z" transform="translate(-441.05 -252.98)"/><path class="cls-18" d="M623,708h7.77c-2.61.63-5.24,1.93-7.75,0Z" transform="translate(-441.05 -252.98)"/><path class="cls-19" d="M667,707c-1.46,1.59-3.17,1-4.91,0H667Z" transform="translate(-441.05 -252.98)"/><path class="cls-20" d="M673,527.07c5.29.45,6.25,1.72,5.26,6.83-1.66,8.5-5.2,15.89-12.25,21.27-1.91-.13-3.41-1.21-5-2.1a19.72,19.72,0,0,0-15.87-1.86c-2.09.62-4.2,1.25-6.35.51a21.46,21.46,0,0,0-19.95,2.59,5.76,5.76,0,0,1-2.83.86c-7.66-5.77-11.06-13.94-12.63-23-.66-3.8,1.66-5.17,7.64-5.11,3.56,7.79,10,9,17.78,8.6a258.69,258.69,0,0,1,26.42,0C662.94,536.06,669.43,534.86,673,527.07Z" transform="translate(-441.05 -252.98)"/><path class="cls-21" d="M552.38,429.84c-.33-4.17,1.43-7.27,4.15-9.8,14.5-13.5,37.34-14,52.6-3.39,1.34.93,4,1.69,3.2,3.8-.64,1.67-3,.63-4.55.55a142.92,142.92,0,0,0-45.42,5.12C559.05,427,555.89,428.51,552.38,429.84Z" transform="translate(-441.05 -252.98)"/><path class="cls-21" d="M731.67,429.87c-18.66-7.61-37.75-9.73-57.3-8.77-1,0-2.61.71-2.88-.92-.11-.68.83-1.74,1.54-2.33,4.69-3.94,10.21-6.1,16.13-7.42,13.27-3,25.33-.4,36.19,7.82A15.46,15.46,0,0,1,731.67,429.87Z" transform="translate(-441.05 -252.98)"/><path class="cls-22" d="M641.51,493c6.48,0,13,.18,19.45-.06,4.3-.17,4.36,1.71,3,4.78-1.27,2.85-3.62,4.82-6,6.58-10.43,7.8-29.22,5.86-38-3.78a12.14,12.14,0,0,1-2-2.83c-1.48-3.08-1.26-4.91,3-4.75C627.87,493.18,634.69,493,641.51,493Z" transform="translate(-441.05 -252.98)"/><path class="cls-23" d="M616,555.17c6.21-6,13.52-7.56,21.64-5.06a10.55,10.55,0,0,0,6.71,0c8.12-2.5,15.44-.94,21.65,5.06-16,13.27-33.67,12.29-47.17,2.74A25.19,25.19,0,0,1,616,555.17Z" transform="translate(-441.05 -252.98)"/><path class="cls-24" d="M673,527.07c-1.17,7-4.37,9.89-11.3,9.92q-19.7.06-39.38,0c-6.93,0-10.13-2.9-11.3-9.92Z" transform="translate(-441.05 -252.98)"/><path class="cls-21" d="M604.8,458.63c.15,1.06,0,1.7-.73,2-1.12.44-1.9-.42-2.66-1a30.52,30.52,0,0,0-19.18-5.77A30.08,30.08,0,0,0,565,459.34c-1,.69-2.12,2-3.44.56-.78-.85-.39-1.86.14-2.76,4.72-8,12-12,21-12s16.78,3.6,21.44,12A14.8,14.8,0,0,1,604.8,458.63Z" transform="translate(-441.05 -252.98)"/><path class="cls-21" d="M720.84,458.85c.08.91-.12,1.58-.85,1.77-1.32.36-2.14-.7-3-1.33-8.36-5.84-17.51-6.63-27.13-4.25a26.87,26.87,0,0,0-9.31,4.64c-.75.54-1.66,1.31-2.68.52s-.74-1.68-.37-2.7c2.29-6.4,12.56-12.43,21.32-12.5,9.18-.06,19.11,5.74,21.63,12.63C720.56,458.1,720.74,458.56,720.84,458.85Z" transform="translate(-441.05 -252.98)"/><path class="cls-25" d="M752.37,496.06a9.9,9.9,0,0,1,0,6.72Z" transform="translate(-441.05 -252.98)"/><path class="cls-25" d="M529.8,497.09v5.65l-.44.05v-5.51Z" transform="translate(-441.05 -252.98)"/></svg>